<mxfile host="app.diagrams.net" agent="Mozilla/5.0 (Windows NT 10.0; Win64; x64) AppleWebKit/537.36 (KHTML, like Gecko) Chrome/132.0.0.0 Safari/537.36" version="26.0.9">
  <diagram name="Page-1" id="VJRS1lD8-4P8jBPAlyta">
    <mxGraphModel dx="2109" dy="1755" grid="1" gridSize="10" guides="1" tooltips="1" connect="1" arrows="1" fold="1" page="1" pageScale="1" pageWidth="850" pageHeight="1100" math="0" shadow="0">
      <root>
        <mxCell id="0" />
        <mxCell id="1" parent="0" />
        <mxCell id="0rCnzquColoowFlRNXeS-1" value="" style="sketch=0;aspect=fixed;pointerEvents=1;shadow=0;dashed=0;html=1;strokeColor=none;labelPosition=center;verticalLabelPosition=bottom;verticalAlign=top;align=center;fillColor=#00188D;shape=mxgraph.azure.laptop" vertex="1" parent="1">
          <mxGeometry x="-20" y="260" width="283.33" height="170" as="geometry" />
        </mxCell>
        <mxCell id="0rCnzquColoowFlRNXeS-2" value="" style="shape=image;verticalLabelPosition=bottom;labelBackgroundColor=default;verticalAlign=top;aspect=fixed;imageAspect=0;image=data:image/png,iVBORw0KGgoAAAANSUhEUgAAAMAAAADJCAYAAAB10z3PAAAAAXNSR0IArs4c6QAAAARnQU1BAACxjwv8YQUAAAAJcEhZcwAADsMAAA7DAcdvqGQAACNISURBVHhe7d1XcFzXgebx/7mhc0DOAEGKmWASKQaRlChRwZKlsTSWtfZ4PPbM1GztbNXWzj7Py75u7cNW7csG79hTHntsecaybI2tRJGUSEgMYoYYwAgQGQ2gu9HoeO89+3AbDBAlkiIyzq+KqhKEpoDu892TzxHpdFqiKAuUNvELirKQqAAoC5oKgLKgqQAoC5oKgLKg3TMAicEsfVdTFHIOUo0XKfOMuNcw6PUzCbovpAiVmJQ3+iip9REq8Uz8NkWZk+5dA/QWuNg6wgc/vs7Jd/vouZQiN2ZhFRyk85XZUZRZ754BELoEzSGfzdN+ZJiDv7zB3p9e4/KJEZIjuYnfrihzyj0DAIAA23EYHcnSdzlJ+7Ehzuzt5/P9MTraEoyO5LELzsRXKcqsdx8BEO4/BQhNUigUGOkd48LBGCfe6ePMvn5unEsS78+SS1uqWaTMKfcRgDsJIdB1DSls4v1jnDsQ46N/usHht3q43pYkn7UnvkRRZq0HDgAUKwUBtuWQHcsz3JPiyvFhPvt9N61vdNN+ZJhELKdqA2XW+3oBGKcButssinWN0X54iM/+2MOZfQNcOxFn4PoYqXgeS/UPlFnq4QJQJIRAN0EzJZlUjoutQ3z0sy4O/rqL66cTjCXyE1+iKLPCpATgJgEgsawCqUSajrNxjv+xlyNv9vD5oUFG+jKqNlBmlckNAMUQaBLLshiNZblxLsH5T2K07R/gwqdDdJ0fdYdNLRUEZeZNfgDGCXcSzbLcYdNz+2Mc/MUNjr7dTfeFJNmUhWNLtb5ImVFTF4AiIQRCA+GR5LI5Os/E+fhn3ez7aSdtBwaJ92ewLZUCZWZMeQCgWBtoEsd2SI3k6LucoP1YjLP7+zn9wQDtR4cZ6k5TyKtmkTK9picA44RAGCBNi2RsjEtHhzn8mx4Ov9XNlRNx4n1ZsmMWtqWaRsr0mN4A3CTQdA2hO+TzeXovJjj6Vg8Hft7JuUODjPSm1doiZVrMUABuzSZL6ZDPWoz0pek4O8KZDwc5+d4AFw8PM9ydpqCWVihTaOYCME6A0MGRNqmRLNeOj3Bm7yCn9/bTfnSY/mtjpEbc2WTVLFIm28wH4DbuaJHN2Giaq8eH2f8PNzjw8xucOzREaiSn5g6USTerAkBx2FQ67kRaNpuj53KC03v7Ofjzbs7sHaD3cop8xla1gTIpZl0A4FazSPNIxuJZus/Hads/wJn9A1z4ZIjOz5PE+zLk0ioIysOZnQG4jaYLhC7JWTk6T8c5+lY3+/+pgwufDhHvz+DYKgHK1zfrAwDFGkGA1BzyuQJDXSmO/7GP1l93c/ydPgY6UuTS1sRXKco9zY0AjBMSx3HIjhUYvD7K5RPDtH00yOkPBrl8PMFgZ5pCzlYbcZT7NrcCwPiyivH+QYaO08N88stuDr/ZzfnWoeJssu2OGKkOgnIPcy8ANwk0TSAMCabFwPUkx9/u4a3/doljb/fQc2mUQsFBqhAoX2EOB+BW3wBNkssUiA+m6W5PcL41xum9A7Ttj9HTnmIskVdBUO5qbgfgNkIDzQQ8Nj2XkpzdN8Dh33Vz7lCMnkspRofz7vmmqn+g3GbeBGCcwB02LeQKDHelOPluH61vdHH8D33EusbIZdTaIuWWeRcA3FXXSCRWwSaTzNF/bZTzrTFaf9FNx+kkmZQaMlVc8zIANwlAd8ik8vRfHuXMe4P0tqfIqzkDpWh+BwDcFGgSYbh/JBJH9QOUogUQgKLxEaO7kI4kFc+THVM1w1wgpSSdLJAdcw9WeBgLJwAUOwd3CYFVkHSeHaWjLclQd5pcxn7oN1aZfNJxC37/tRSdbaMMd2WwrYfbJ7KwAvAl8lmbU+/1c+S33Xx+KEaiP+suqXiIN1aZXFJCIecwcH2ME+/3cfztATrPjrlbZx/ig1IBKJLSYfB6mlPv9LP3J9c4/k4vPZeSqiaYBTKjBW6cT3Do113uvvEDg8RjGWzb/vJ27X1SAbhNbqzAUPcY18+M8PnBGKffH6DtwCB9V1Nk1dDptLItSSqRp7MtQduBGCf/2M+51kG6zsdJxrJYeXtSZvdVAIqEAGG4p9nlMnlunIlz/N962f/zDs4fijFwfYzMaAErX5xNfvj3XrkL6UjyWZvUcI6e9lFOvt/HoTdu8NlbvQxcTVIoWBhezV0H9pBPf1QA7kKApmloHnCETXJwjJPv9rH/Zx188mYX3e2j7kTaw7/3ygSOI0mPWlw9FefQv3Sx9/91cPHIMGOJLHrQQTPFw7Z4vkAF4G6KS65BYlsOo8NZei8nufBJjJPv9dH20SA3ziVIJwuqjzAJbMshMZil42yC0x/0c2ZvP5ePDRG7kSKdyGFbNkKXxUG8yU2ACsBXESA0AZpDNp1n4Ooo5z4e5OT7/bR9PEj3xRSJgazam/w12ZYkm7IY6krTcSZB24EBTrzTx6XDQwx1jeFIC6HJYm07uQV/nArAfREITaAZgkKhwMDVJKffHeDAz25w8r0B+q+l1El2X0MmVaCrfZRPf9PDwV910/ZhjJH+MSzHRjcnp41/LyoAD6L4edi2Qy6TJ9aV5HxrzD3f9M1erp9Rt+Hci1VwGB3JceGTIQ7/aw+H/vkGV0+NkBgYI5/L49gOMP7Un3oqAF+D0NxFdrlMnoHro7R/OsSpvW7f4OrxOAMdY6STBXXse5GUbjs/OZSj99Iolw6P0HZggLMHBrh8ZIh4X5pC3gJ9+gr+OBWAr63YLDIlNnmGupKceLuXfT/p5Ngfuum/PqaujC2SjiQ7ZnHtVJxPf9vNB/+7g/MHYyRjacywdDcyTXPBH6cCMBmKa4ykZpNKpLn46RCf/LqLw292c/nECKMj+YU3WiTdTu5Ib4bznwzx4U+uc+ztHjrbEuQLORxsEHLmSn6RCsBkEYAmKVgWib4MHW1x9260fQNcbB2i+2KSscTCCEIhZ5MYytL5eZLzh4Zp2z/AxcMxei8lSQ1nbxX+mS37oAIw+YQQaKYgn3WHTc+8P0Drr29wam8/vVdSpEcL2PP0tAopJVbeIRnL0dmW5LN/6+XIb3s4fyBGKp7DdhyEPvFVM0sFYIoIzd2bLHWb0XiGC60xPvxxBwd/2cWVk3HSycK82qBvWw6ZpMW5j4f4+BddHPjHTq6dHmZsNAMe2z35exY88SdSAZhKAhASq+CQGs7Rf3WUy8eGOP1+P6feHeDqqQSJwRy2PTfnEKSU2AWHWFea9iMjHP1tL6f39XH11DCxLncW17Jmb+FHBWB6COEe2eJoFrGuFOc+HuTwm92cer+PjrYEif4subR7N9pcYeUd0skCQ11prhyPc+LdPg7+sovLx4ZIDqXRPBKhz96CP04FYBoJIdB0QLdJp7JcOhzj0K+6OPRGN9fOJhiLz41OsnQkw71pzrfG+OCn1zn6Vg+dZ+M4WgHNkGjaLC/1t1EBmG7C/eM4DtmMe4n4tZMjfPb7Xo6/08elz4ZJDGSxZuGVsfmMzVB3mrMfxfjs3/o4/eEAXRcTxAfT5LMFEM7N32+uUAGYKcLde2AVLEb601w6PMyZff2c3T/A5aNx+q+NMZYozPgJFlK6yxcSsRw9l1K0Hxnm1Ae9fP7xIJ2nR0jHc+7OLG1mf86vSwVgRrkTaEKTCNMi0Z/mwsEY+37SwadvdnP9TAJrho9ztC2HsWSBc62DfPzPnXz00xt0nIqTTmbRTOleYDKHnvgT3TsA41XaHP4lZ73ismspJbZtkclk6Tgb58hve/jg/3bQ9nGM4e40znR1kiVIW9J7eZQT7/Tx/v+6yqn3+um7miRXyGE7xSUec7nkF907AEi1+2+6CPcTcYRNcijDjbY4bQf6aTswwIXDw3SeS5IYzFHITd0ao+yYxVB3misn45w7OMTZA4OcPzhI/6VR0ok8aI67GHDul324rwDIYkNwHs5czlaC4miRYZPJZLnYGuOTX3fR+i83uH42Tqq4tmgyPxIpwbHdtTvnWmO8++NrHH2rhxtnR3A0C2G6w5rzpuQX3TsAaAipIx3h5kDVB9PK3awvyabzdLeP8skb3Xz8z52c3tdPMpalMAmjRdkxi/5rKY6+3cPBX3Vx+v0BkgNpClbBPVJyHjR1vsw9AxCuMKhaHCBY4kXXdaTltlWVaVKcTbYtm3Qix8C1Ua4cd9fTn3ynn6sn4oz0Fm/LfJCPRbqL1vqvp2g/PMLp9wZp+zjG9TNxhrrHyGctpCwOa85j9wxAxSIfS7dGqV8VJlrux2Oa7sZkWWweKdOjOFokdZtkLMOVYyMc+mUXJ97p4eqJOImBHJkxy70b7R7GZ3FHujNc+HSIY2/38tnve+k6647uoNkIsTA+3HsGIBA2WbQ6yjN/uZin/qqZdc9XE4oG0DBxVG0w7YQQ7toa3cGmQMeZBK1vdPH2/7jM2f0DDHWnv3LY1LElvVdSHP19D2//zyuceLufgWtJbJFHGMUO7nx/7N/mngHQDQ1/2KC8wU/zuggtu6vY9mo9K3eWU9kcwtANpO1OjyvTpDgsLZFk0wVG+t270doOxDj5ziDnW4fJpKw7PhPHlgx3Zzizd5BT7/Zz4dMhei8nSQ5lyOcKbt9u4ZT7m+4ZgNuFy7wsaonw2Ldq2fCNapY9VkZFU5hgiRfD1FWzaJqJ4mwyukMu555md3bfIJ8fiJFJ5u+YRbYth4GODJ+908fnHw3SdzmJZRdAdx6wFMwvD/yra5rA9Oo0t0TZ+ie17PmrJlbuqqC0LoSQBjjF/oEyrYQAaVhkRnPE+9zTre8MgCSTLBDvzVKwCu54/jwe3blfDxwAim+26dUJlXupWxZmw55qtr5cx/pnqyitD2CaJtLSJnWcWrk/Eokj7zJHUPx3Kd1bchZic+duvlYAxhmmRjDqoXFVlJU7y1n3TDUrt1fQsCpCSbUfQ9dACuS9ByaUSSLGj3WcWMCLd4MU9+8rRQ8VgNuFoh6a10Z55q8W8+QPFrFqVzn+oA/haDiWmkCbVuqtvm+TFgB3nFqgaYLKpgDrn6nm+b9dwmPfqqNhTQm6NMDRijPK6hOaMuqtfSCTF4DbBCIm1c1Blm8rY83uStY+UcnybeVULArhD5ngFJtF6sNSZtjkB6DYwBSawOPTaVod5dEXanjqR4tYtbOC8oYghmGg3bWhqijTa/IDcBemT6ek2s+jz1az67uNPPZKHZXNYTweE6eghk2VmTMtAdCKtUFJjY/G1RHW7Kpg0zdqWLWrgpplYUzTBFu4M8oqDMo0mpYA3CIJRAwaVkTZ9GINm1+uYfWuCqqaIgSjPgyPfmuhnaJMg2kOQHERiwDNEFQ1h3j0+Rpe/E+LeeyVOmqXl2AIT3G0aOJrFWXyTXMAbhFC4PHqhEq9VDYHWbm9jMdeqGHjizXUr4kSjHoRtg5OcbuSokyBGQvAOHdZhUb14hArdpTz6DerWL2znKaWEsrqgngDHoTQVLNImRIzHoDbeXw6VU1BHn2ulie+18jmV2upaAxjGl6k5S6rUJTJNKsCIARousAbMCir9bNscyk7Xq9nyyu1LNpQgsc0kQUNaQtVISiTYlYFYJzQwBs0KK/zs+yxUlp2V9DyRCXLtpRTszRCsMSLGO8oq/6B8hBmZQBuZ3g0qpeE2PRiLc/9h2a2vlJL/YoIBiZY7kkVqoOgfF2zPgDjhCYIRDws2VTKju808NRfN7FsWwWhaKDYLFKVgfLg5k4AhFsbRCu81K8Is3JHOWufqmbVrkoaWkoIlfnQdV3tSFMeyJwJwO0Mj0ZZnZ/Vu8rZ+motG5+vpmFllEipH8Mw1CYc5b7NyQCM002NaKWPFdvLeeJ7jTz+egPNj5bgNXw4WQ3pSLX3QPlKczoAQoDp0QhFPVQ1B3lkUwkbn6tl08s1LN1aSrjCj4bhDptKtSdN+aI5HYDbjTeLVj1expZv17DhGzUsXldGWV2IQMiDrrvDpqpppNxu3gRgnNAE4VIvK7aWsfvPm3ji+w0s3VJOMBxA5kBaUg2bKjfNuwBAcTbZbxCt9LJobYQNz9Ww5dValu4qIVLjUTvRlJvmZQDALePjneTmlghrd1ew/tkqKpuDGN75+2srD2ZBlATd1IhW+1n3TBVNqyMEo56J36IsUAsiAIwvtNMEmu4e3TKRlZc4hYlfVWYbefM2G/fPw3bnFkwAvoomIFrpJRA10RhfZDfxu5QZJwVCCjShESwz8Yd1NP2LD7MHoQIA6B6Npg1hapcF8fo9aJo+8VuUWUAIgWEYBEJeapb5KWv0YXi0hzrkVwUAdzJt6eYytn+7kSd/0MTSx8oIlwXcLZk3N+GoKmH6Fa99cgTC1impDrBqVwXP/E0zj71YS+0jIbc5+/XLvwoAt80d1C4NsWxLKeufraHlySqa1pXgC3oQuJtwlGkkQVruEz9aFWDpljLW7ami5ekqFj9aQkVDAH/YeKjCjwrAnTx+nfL6AGt2VrDpm9Ws21NF3dIokYoAHp/hjq2qebSpJd22vqZp+IMeSuuCLNlQyqMv1bLpm7Us21xGpMyLbk5O0Z2cv2Ueilb5WLWjgpf/7hF2fa+BJZvL8GgesHXk1N1TvaBJKXFsgbQ0AiEfa/ZU8/QPF/HEnzWweG2UYMSc9MvpVQCKbMtxrxotMkz3brSSGh9LNpaw8dkaHn+9gaXbSimtDSCc8UV2d/w1ygOSSHfUzRaYuknV4jBr91Sx/bUG1u6upGF1mGiVD2/AeOgRn7tRASheHzR0I81Ib4bsmIV07lwxV1rjZ+mmUjZ/q4Z1e6pYsqmMquYwgagHwyge2aKC8MBksYNrenTC5T5ql0VZsa2cDd+oYeMLVTStiRAq8SDuMm8zWVQAgHzG5rM/9nF63wCDnWMU8l+8dFo3NQIRk1XbK9n1eiNP/kUjzRtKCER9t2oCFYL7JqX71BeWTrQ6wKpdlTz1oya2/2k9zS0RfEHzoYY375cKAO4Vr6NDedoPj9D6RjfH3u6h81yCzKh1RxNHCIHh0QiVeWhYGWbry/Vs/9N6Vj9RSajEj64ZYGtqE85XkI7EsSSmblC5KMyjL9Wy87UG1u+ponpxEH/IQDe0SW/rfxkVgOKD28o6jNzIcOWzYc5+NEjb/hiXjowwcD1FZrRwx527hkcjXOahqSXKqh3ltOyuZtXOChpWR4lU+MBSm/QnkhKkLTBNg5IaP4vWlrB6RyVr91SxfFs5tUtDBCLmlLTzv4oKQJHQAN2hYBXobR/l6Js9fPjj65z4oI/BzjSFnOOG4I4aAUqq/ax6vJzn/2Yx279TT/P6EjTL496S6ah2kSyO7uCA5uiEIgGWb6/gie83sePf1dO8Nkogak5pO/+r6H//93//Xyd+caEp5BwufjJEYjCLbTsITYImsW2bRF+WvqtphrqzoIEnoGN69DuqaCEEQhP4wwYVDQEa10TwRXVsGzLDjlsTCEBI9/j3KaShESr1suLxMgIRE113n3FWwSHWmeHqqThWwUJKOeVtbCklWBoew0P1sggtuyvZWLxgvbTWh8enz1jBH6cCMDEAlnPzqlHHdsimLMZG8ozFC2RGLXJpB8dyMLwahqnd/ACFcC8BCZR4iNZ48Uc9+IMmplcHIXAsiZVz3NPhp/Aznw0BkA4IKfAFTcrqgzStcUd3HtlUQv2KMNFKH6Z35gs/qgn01YQm0EyBbdsMdY/R9uEgR37bzel9A/S0pxgdzlHI2nf0D3RDEIiYLN1YyuaXatj2nXoe2VxOaW0Qr8dEE/P43KJiVacbGr6ASXlTiFU7y9n2Wi2PvlBN/coIvtDDL1+YTCoA90MAmsQRBRKxNBdbh9j3004++U0XV8/ESY9ad4Rg/DX+oEnd0hDbXqll53cbWftcNSUVIQzdLB7wO3+SIB2Qlo7H9FCztIRHX67lqR8sYuOz1VQtCk3a0oXJNjt/qllKCrAKNmOJLIMdo1w+Nsyp9/o58cd+rp9NMDqSu+PprhkCX9CdTW5qCbN2dxWbX6plxePlVDSE0GwTOYfPN5VSusOaefB6TaqXhVn7dBWbnq9h9Y4K6peFiFT68Pjv7DPNJioAD0AUR37QJJZTINY5RnvrEMf/0EvbgQE6TicZ6kqTSVnY1q0CrWmCSJmXRS0RNr5Qxbpnq1m6uYzKxgihUh+mR3fXwMyVDEi3tSOEhunVCZf7qV0aYfXj5Wx6sZqWpyqoXx7BH56a5QuTSQXgaxJCoBngaDajI2nO7h3gg/9znQ9/0smNiwkyqS/urxSaWyMsXhfl8dfreem/NLP+mRpKa8M4GQ1pFZ+qs7w2cKQDBQ2v4aXqEfd3ee7fN7PlW/VUNgfdjj8UHxmzmxoF+pJRoPtS/D4pJbblYOVsMqMF4n1ZkrE8+ayN6XdHi8afhEK4nUTTq+MPGYTLPJRW+QiWGaAL7DwUMm4AxG3/j/s1ZaNAsji6gyAQ9tOwOsLKxytYtbOcptURSuv8+ILuE/9B/tqZpgLwMAEYVxw2lUKSz9gMd2cZHS6QTRWQllt4hCHcYVPhFhChucsqwuUeotVeolXem9v7pCWQtoPjuCslH+TnmZIASIEQGt6gQUmVn8ZVJazYWs7ybaU0ro4QKvVgmHNzG6lqAk02TSIMh3jvGBcOxtj3jx0c+X0PHWcT5DNuwZsoEDFpXB1h67fq2fF6Iy17KolWhtCF4Z5k98WXTBN3BhdHwzQ8VC+OsP75Kp76YSNrn6mkclHwZqjnKhWAqSIkjrTJpXNcPzXCkTd72PsPHVz4JEZiIDPxu29OpFU2BVi7u5LdP2xi44u1VC2OoksPsiBwpmtpRXF0x84IfH4vjWujbHutju3frmf1jkrCFV5Mz/QtWJtKqgk0GU2gu7nZP3DIjdmMDedJDObIjFnkUg5WXqLp7sSZbrjPIaEJTK9OIOpxj2mJGHgDhrtkQNdwbLCyxf7Bl/yMD9sEko5A1zS8AZOq5gjN60pY9lgZSzeVUPNIiEi5t7ha84uvnYtUDTDlBMIAR9ik4mk+3zfIoV910fpGF9fPJEgO5ijk71xoJwR4AzqL1kbZ/lo9u/+ykZbdVVQ0hPHoXneT/l2aUg9PoAsdX9BHRVOYra/U8eQPm9j8Ui3VS0L4gsbEF8x5KgDTSGgC3SvJ53L0XEnQ+kYXH//yBmf3DZAcylHIf3GzsWEISmv8rHu6gt1/0cSOP6+nYU0JPr8XpyDc/ckPkQUpJY4FwtEJhPws3VrGju/W8+LfLuGRzaWESub3MZIqANNJgNDBcRyyqTyxzhTXTo3Q9tEAx//Qx5UTcYZ70lgF5+YTXmhu36CkxkfjqhArd5SzYU8Vq3dWUrciSiDiRYjiaXYPQBaHNTVhEK0I0LSuhHVPV7F2dxXLt5RRuyxEuMyD4ZnfRWR+/3azlSh2kjWbZCzD9ZNxjrzVw6m9fVw5Hme4O006aWEVbpVqIdwLxKubg7Q85S6pWPNkJbXLIoTL/O4wpCwuQf6SGuHml6VAEwKP1yBaHmBRsfBvfbWGFdvLqGgMzJs2/r2oAMwgdx8BSGGTz+e4emyET/+lm73/0MnFT4eI92cnvgQAj1ejclGQDc9W8cSfNbLxhWoqm8PoeHDybg1zVxJ3p1pew+f3Ubs8ys7vNfD4d+pZtaOccLkXwzM3x/O/LjUKNFWjQPdL3BoxsvMO+ZxFerRAcqBAYiBHOmFhet1JtPEVle5ssts08gUNQqUeyqr9hMs96KaOx2uwbEsJ/rB5c4SpkLMZ7s7Q056isSXM8m1lrHy8nKY17rEjvqCBps2tWdzJoAIw0wG4jdDcdUCFrM1Id46RvhzJkVzx53FrC91wd5+NN1EMj0ao1ENFk5+SOi8ej4nX66GhJYgvYKAVh0FtS5JJ2VhZm5U7y1mxtYzG1VH8oVshWYhEOp3+khbjwjGWKPC7/36Rjs/j5LKFGQvAHYqbSzRNx+P1UL8yxJJNUVZsKyNc7m4nnMixJfmsjW1JPH4N3dBu3oVg2+6OtELexuvX0c1b/20hW7jRn+2KKXQcm1wmR8/lJGf3D3LwF9207Ruk70oKa3z+oEjTBd6Au8jOmFDANU1g+jQCYRPDo6vCX6QCMJsV+wcONulEjv4ro1w8HKPt40HOHxri2ukEI70Zcmnr1kuEewvOxFEccdsNObOihpslVADmACEEQgcpHDKZLFeODXPkNz3s/6dO2o8NE+/P4Nhy7myomUVUAOYYIQSa6VCwcwx1JTn2Vi/7ftpJ67920XdllOzYrdpAuTcVgLlIc8f6c+kCsa4xOs7GOXdokFPvDdD+6TD914r9A1Uj3JMKwFxVPIxL80hy2Ty97Uk++10fR37XS/uRYbLpu+89UO6kAjAfCHcOwdbyxDpSXDueIJPI41hfMiOs3KQCMF8IQEgKOZvMqI1tz/at9bODCsA8IzR3xemDbqZfqFQAlAVNBUBZ0FQAlAVNBUBZ0FQAlAVNBUBZ0FQAlAVNBUBZ0FQAlAVNBUBZ0FQAlAVNBUBZ0FQAlAVNBUBZ0FQAlAVNBUBZ0FQAlAVNBUBZ0FQAlAVNBUBZ0FQAlAVNBUBZ0FQAlAVNBUBZ0FQAiqR8uPt2lblJBaB4iJrh0dB0AQ958bQyt6gA4F5GHSj14PV5kFbx0mkVggVBBQDw+DQefb6K7a/XsfbZSsrqQhiGgV2Q6ojxeU4FANBNjdqlYZZvLWPN7ipW76yksSVKtCqAkKpGmM9UAIo0XVBa42fFlnIef62eTd+sY8nGUnwBH4ZhuJfOqdpg3lEBmEDTBL6gQfPaKNteqeMbf7uYVTsriZaHkBkDaanaYD5RAZhIgGYIglGTqkVBlmwuYe3T1ax/rpoVu8opqwtimgZOAbdppMxpKgBfQTc1wqVelm8pZfOfVLPltVqWbCqjrD6Ez+9BNzQ3MapGmLNUAO5TIGTSsDzKzu808MT3G2l5tpLSqhCmbiJtoUaL5igVgPuk6QKvXydS6aVxdZi1u6vZ/FINK3aWUbEoiK7pSFs1i+YaFYAHpOmCcJmXptURWp6uYO3TVSzfWkbN0gjBUi+6oSFt1SyaK1QAviZNFwQjHh7ZUMrjrzXyzF8vZsW2CoIRPzJr4FiaGjWdA1QAHoLQBLqpEQibVDcHefQbNez+8yY2v1pNzdIwHo8HOweOrWaUZysVgEmg6YJAxKRhZYRVu8pZ90wlq3dU0LyuhPKGAF6/iaA4o6zMKioAk0hKiS9ksKilhG3frmfXnzWw9pkqSmuCmIYJjuobzDYqAJNICOEumQBMj0ZFY5D1T1Wz+wdNbHyxhupHInhML9ga0lEbEGYDFYApoukCf8igrD5A87ooa3ZVsH5PNcu3u8OmpsdAWkI1i2aYCsAUEwL8YZOmliiPvVzDlldrWba1jNK6oDubrGsIVGUwU1QAppFhalQtCrH1T+p44T8uZetr9dQsiaAL89ZGHGVaqQBMI6G5s8nRSh/1y0KseryCTd+oZd0zVdSujOAPe0EKpNqWOW1UAGaIx69T80iIlj2VbH65ltW7yqlfHiFaEcD06cX9B26HWpk6KgAzzPTqVC4KsvnFOp78fiObvllDzSMRvB4v2KI4m6yqg6miAjDDhHD7Bv6QQWVTkBXbytn+agMbX6imfnXUnT+wVf9gqqgAzCK+kEHVoiDLt5Wxdk8la3ZWsnh9KeWNIfxBj9skUpNpk0oFYLYp1gg1j4TZ8kod3/zPS9n8Ui2Vi8Lojnlz7kCtLZocKgCzlBCgF7dmrthaxq7vNvLkj5pYuq2MUIkfYRf3H6gcPBQVgFnO8GiU1vppXh9h9RPlrH2qmhXby6lbGcUf9aLratn1w1ABmCNMr055fYD1e6rY8Xo9m16ooXZJhEDIh6Hp7myy8sBUAOagcLmPpVtK2fOjJrb9aT3NG8rweL0IR40WPSgVgDnI9GqEy7zF0+xKWbenmg3P1dC0roRA1IudVVMH90uk02n1Vs1xdkGSTuZpPzrEpdY4+ZTk+b9bRFmdH9OjT/x25TYqAPOAlCBtSTZtkejLkh2zqVoSwBc0imcXKV9GBWCeKWRtrLyD6dfRdYHQVPf4q6gAzEuyeO2Hci+qfpyXVOG/XyoAyoL2/wHYnAVKkI7bEgAAAABJRU5ErkJggg==;" vertex="1" parent="1">
          <mxGeometry x="50" y="290" width="38.21" height="40" as="geometry" />
        </mxCell>
        <mxCell id="0rCnzquColoowFlRNXeS-3" value="" style="sketch=0;aspect=fixed;pointerEvents=1;shadow=0;dashed=0;html=1;strokeColor=none;labelPosition=center;verticalLabelPosition=bottom;verticalAlign=top;align=center;fillColor=#00188D;shape=mxgraph.azure.laptop" vertex="1" parent="1">
          <mxGeometry x="560" y="260" width="283.33" height="170" as="geometry" />
        </mxCell>
        <mxCell id="0rCnzquColoowFlRNXeS-4" value="" style="shape=image;verticalLabelPosition=bottom;labelBackgroundColor=default;verticalAlign=top;aspect=fixed;imageAspect=0;image=data:image/png,iVBORw0KGgoAAAANSUhEUgAAAMAAAADJCAYAAAB10z3PAAAAAXNSR0IArs4c6QAAAARnQU1BAACxjwv8YQUAAAAJcEhZcwAADsMAAA7DAcdvqGQAACNISURBVHhe7d1XcFzXgebx/7mhc0DOAEGKmWASKQaRlChRwZKlsTSWtfZ4PPbM1GztbNXWzj7Py75u7cNW7csG79hTHntsecaybI2tRJGUSEgMYoYYwAgQGQ2gu9HoeO89+3AbDBAlkiIyzq+KqhKEpoDu892TzxHpdFqiKAuUNvELirKQqAAoC5oKgLKgqQAoC5oKgLKg3TMAicEsfVdTFHIOUo0XKfOMuNcw6PUzCbovpAiVmJQ3+iip9REq8Uz8NkWZk+5dA/QWuNg6wgc/vs7Jd/vouZQiN2ZhFRyk85XZUZRZ754BELoEzSGfzdN+ZJiDv7zB3p9e4/KJEZIjuYnfrihzyj0DAIAA23EYHcnSdzlJ+7Ehzuzt5/P9MTraEoyO5LELzsRXKcqsdx8BEO4/BQhNUigUGOkd48LBGCfe6ePMvn5unEsS78+SS1uqWaTMKfcRgDsJIdB1DSls4v1jnDsQ46N/usHht3q43pYkn7UnvkRRZq0HDgAUKwUBtuWQHcsz3JPiyvFhPvt9N61vdNN+ZJhELKdqA2XW+3oBGKcButssinWN0X54iM/+2MOZfQNcOxFn4PoYqXgeS/UPlFnq4QJQJIRAN0EzJZlUjoutQ3z0sy4O/rqL66cTjCXyE1+iKLPCpATgJgEgsawCqUSajrNxjv+xlyNv9vD5oUFG+jKqNlBmlckNAMUQaBLLshiNZblxLsH5T2K07R/gwqdDdJ0fdYdNLRUEZeZNfgDGCXcSzbLcYdNz+2Mc/MUNjr7dTfeFJNmUhWNLtb5ImVFTF4AiIQRCA+GR5LI5Os/E+fhn3ez7aSdtBwaJ92ewLZUCZWZMeQCgWBtoEsd2SI3k6LucoP1YjLP7+zn9wQDtR4cZ6k5TyKtmkTK9picA44RAGCBNi2RsjEtHhzn8mx4Ov9XNlRNx4n1ZsmMWtqWaRsr0mN4A3CTQdA2hO+TzeXovJjj6Vg8Hft7JuUODjPSm1doiZVrMUABuzSZL6ZDPWoz0pek4O8KZDwc5+d4AFw8PM9ydpqCWVihTaOYCME6A0MGRNqmRLNeOj3Bm7yCn9/bTfnSY/mtjpEbc2WTVLFIm28wH4DbuaJHN2Giaq8eH2f8PNzjw8xucOzREaiSn5g6USTerAkBx2FQ67kRaNpuj53KC03v7Ofjzbs7sHaD3cop8xla1gTIpZl0A4FazSPNIxuJZus/Hads/wJn9A1z4ZIjOz5PE+zLk0ioIysOZnQG4jaYLhC7JWTk6T8c5+lY3+/+pgwufDhHvz+DYKgHK1zfrAwDFGkGA1BzyuQJDXSmO/7GP1l93c/ydPgY6UuTS1sRXKco9zY0AjBMSx3HIjhUYvD7K5RPDtH00yOkPBrl8PMFgZ5pCzlYbcZT7NrcCwPiyivH+QYaO08N88stuDr/ZzfnWoeJssu2OGKkOgnIPcy8ANwk0TSAMCabFwPUkx9/u4a3/doljb/fQc2mUQsFBqhAoX2EOB+BW3wBNkssUiA+m6W5PcL41xum9A7Ttj9HTnmIskVdBUO5qbgfgNkIDzQQ8Nj2XkpzdN8Dh33Vz7lCMnkspRofz7vmmqn+g3GbeBGCcwB02LeQKDHelOPluH61vdHH8D33EusbIZdTaIuWWeRcA3FXXSCRWwSaTzNF/bZTzrTFaf9FNx+kkmZQaMlVc8zIANwlAd8ik8vRfHuXMe4P0tqfIqzkDpWh+BwDcFGgSYbh/JBJH9QOUogUQgKLxEaO7kI4kFc+THVM1w1wgpSSdLJAdcw9WeBgLJwAUOwd3CYFVkHSeHaWjLclQd5pcxn7oN1aZfNJxC37/tRSdbaMMd2WwrYfbJ7KwAvAl8lmbU+/1c+S33Xx+KEaiP+suqXiIN1aZXFJCIecwcH2ME+/3cfztATrPjrlbZx/ig1IBKJLSYfB6mlPv9LP3J9c4/k4vPZeSqiaYBTKjBW6cT3Do113uvvEDg8RjGWzb/vJ27X1SAbhNbqzAUPcY18+M8PnBGKffH6DtwCB9V1Nk1dDptLItSSqRp7MtQduBGCf/2M+51kG6zsdJxrJYeXtSZvdVAIqEAGG4p9nlMnlunIlz/N962f/zDs4fijFwfYzMaAErX5xNfvj3XrkL6UjyWZvUcI6e9lFOvt/HoTdu8NlbvQxcTVIoWBhezV0H9pBPf1QA7kKApmloHnCETXJwjJPv9rH/Zx188mYX3e2j7kTaw7/3ygSOI0mPWlw9FefQv3Sx9/91cPHIMGOJLHrQQTPFw7Z4vkAF4G6KS65BYlsOo8NZei8nufBJjJPv9dH20SA3ziVIJwuqjzAJbMshMZil42yC0x/0c2ZvP5ePDRG7kSKdyGFbNkKXxUG8yU2ACsBXESA0AZpDNp1n4Ooo5z4e5OT7/bR9PEj3xRSJgazam/w12ZYkm7IY6krTcSZB24EBTrzTx6XDQwx1jeFIC6HJYm07uQV/nArAfREITaAZgkKhwMDVJKffHeDAz25w8r0B+q+l1El2X0MmVaCrfZRPf9PDwV910/ZhjJH+MSzHRjcnp41/LyoAD6L4edi2Qy6TJ9aV5HxrzD3f9M1erp9Rt+Hci1VwGB3JceGTIQ7/aw+H/vkGV0+NkBgYI5/L49gOMP7Un3oqAF+D0NxFdrlMnoHro7R/OsSpvW7f4OrxOAMdY6STBXXse5GUbjs/OZSj99Iolw6P0HZggLMHBrh8ZIh4X5pC3gJ9+gr+OBWAr63YLDIlNnmGupKceLuXfT/p5Ngfuum/PqaujC2SjiQ7ZnHtVJxPf9vNB/+7g/MHYyRjacywdDcyTXPBH6cCMBmKa4ykZpNKpLn46RCf/LqLw292c/nECKMj+YU3WiTdTu5Ib4bznwzx4U+uc+ztHjrbEuQLORxsEHLmSn6RCsBkEYAmKVgWib4MHW1x9260fQNcbB2i+2KSscTCCEIhZ5MYytL5eZLzh4Zp2z/AxcMxei8lSQ1nbxX+mS37oAIw+YQQaKYgn3WHTc+8P0Drr29wam8/vVdSpEcL2PP0tAopJVbeIRnL0dmW5LN/6+XIb3s4fyBGKp7DdhyEPvFVM0sFYIoIzd2bLHWb0XiGC60xPvxxBwd/2cWVk3HSycK82qBvWw6ZpMW5j4f4+BddHPjHTq6dHmZsNAMe2z35exY88SdSAZhKAhASq+CQGs7Rf3WUy8eGOP1+P6feHeDqqQSJwRy2PTfnEKSU2AWHWFea9iMjHP1tL6f39XH11DCxLncW17Jmb+FHBWB6COEe2eJoFrGuFOc+HuTwm92cer+PjrYEif4subR7N9pcYeUd0skCQ11prhyPc+LdPg7+sovLx4ZIDqXRPBKhz96CP04FYBoJIdB0QLdJp7JcOhzj0K+6OPRGN9fOJhiLz41OsnQkw71pzrfG+OCn1zn6Vg+dZ+M4WgHNkGjaLC/1t1EBmG7C/eM4DtmMe4n4tZMjfPb7Xo6/08elz4ZJDGSxZuGVsfmMzVB3mrMfxfjs3/o4/eEAXRcTxAfT5LMFEM7N32+uUAGYKcLde2AVLEb601w6PMyZff2c3T/A5aNx+q+NMZYozPgJFlK6yxcSsRw9l1K0Hxnm1Ae9fP7xIJ2nR0jHc+7OLG1mf86vSwVgRrkTaEKTCNMi0Z/mwsEY+37SwadvdnP9TAJrho9ztC2HsWSBc62DfPzPnXz00xt0nIqTTmbRTOleYDKHnvgT3TsA41XaHP4lZ73ismspJbZtkclk6Tgb58hve/jg/3bQ9nGM4e40znR1kiVIW9J7eZQT7/Tx/v+6yqn3+um7miRXyGE7xSUec7nkF907AEi1+2+6CPcTcYRNcijDjbY4bQf6aTswwIXDw3SeS5IYzFHITd0ao+yYxVB3misn45w7OMTZA4OcPzhI/6VR0ok8aI67GHDul324rwDIYkNwHs5czlaC4miRYZPJZLnYGuOTX3fR+i83uH42Tqq4tmgyPxIpwbHdtTvnWmO8++NrHH2rhxtnR3A0C2G6w5rzpuQX3TsAaAipIx3h5kDVB9PK3awvyabzdLeP8skb3Xz8z52c3tdPMpalMAmjRdkxi/5rKY6+3cPBX3Vx+v0BkgNpClbBPVJyHjR1vsw9AxCuMKhaHCBY4kXXdaTltlWVaVKcTbYtm3Qix8C1Ua4cd9fTn3ynn6sn4oz0Fm/LfJCPRbqL1vqvp2g/PMLp9wZp+zjG9TNxhrrHyGctpCwOa85j9wxAxSIfS7dGqV8VJlrux2Oa7sZkWWweKdOjOFokdZtkLMOVYyMc+mUXJ97p4eqJOImBHJkxy70b7R7GZ3FHujNc+HSIY2/38tnve+k6647uoNkIsTA+3HsGIBA2WbQ6yjN/uZin/qqZdc9XE4oG0DBxVG0w7YQQ7toa3cGmQMeZBK1vdPH2/7jM2f0DDHWnv3LY1LElvVdSHP19D2//zyuceLufgWtJbJFHGMUO7nx/7N/mngHQDQ1/2KC8wU/zuggtu6vY9mo9K3eWU9kcwtANpO1OjyvTpDgsLZFk0wVG+t270doOxDj5ziDnW4fJpKw7PhPHlgx3Zzizd5BT7/Zz4dMhei8nSQ5lyOcKbt9u4ZT7m+4ZgNuFy7wsaonw2Ldq2fCNapY9VkZFU5hgiRfD1FWzaJqJ4mwyukMu555md3bfIJ8fiJFJ5u+YRbYth4GODJ+908fnHw3SdzmJZRdAdx6wFMwvD/yra5rA9Oo0t0TZ+ie17PmrJlbuqqC0LoSQBjjF/oEyrYQAaVhkRnPE+9zTre8MgCSTLBDvzVKwCu54/jwe3blfDxwAim+26dUJlXupWxZmw55qtr5cx/pnqyitD2CaJtLSJnWcWrk/Eokj7zJHUPx3Kd1bchZic+duvlYAxhmmRjDqoXFVlJU7y1n3TDUrt1fQsCpCSbUfQ9dACuS9ByaUSSLGj3WcWMCLd4MU9+8rRQ8VgNuFoh6a10Z55q8W8+QPFrFqVzn+oA/haDiWmkCbVuqtvm+TFgB3nFqgaYLKpgDrn6nm+b9dwmPfqqNhTQm6NMDRijPK6hOaMuqtfSCTF4DbBCIm1c1Blm8rY83uStY+UcnybeVULArhD5ngFJtF6sNSZtjkB6DYwBSawOPTaVod5dEXanjqR4tYtbOC8oYghmGg3bWhqijTa/IDcBemT6ek2s+jz1az67uNPPZKHZXNYTweE6eghk2VmTMtAdCKtUFJjY/G1RHW7Kpg0zdqWLWrgpplYUzTBFu4M8oqDMo0mpYA3CIJRAwaVkTZ9GINm1+uYfWuCqqaIgSjPgyPfmuhnaJMg2kOQHERiwDNEFQ1h3j0+Rpe/E+LeeyVOmqXl2AIT3G0aOJrFWXyTXMAbhFC4PHqhEq9VDYHWbm9jMdeqGHjizXUr4kSjHoRtg5OcbuSokyBGQvAOHdZhUb14hArdpTz6DerWL2znKaWEsrqgngDHoTQVLNImRIzHoDbeXw6VU1BHn2ulie+18jmV2upaAxjGl6k5S6rUJTJNKsCIARousAbMCir9bNscyk7Xq9nyyu1LNpQgsc0kQUNaQtVISiTYlYFYJzQwBs0KK/zs+yxUlp2V9DyRCXLtpRTszRCsMSLGO8oq/6B8hBmZQBuZ3g0qpeE2PRiLc/9h2a2vlJL/YoIBiZY7kkVqoOgfF2zPgDjhCYIRDws2VTKju808NRfN7FsWwWhaKDYLFKVgfLg5k4AhFsbRCu81K8Is3JHOWufqmbVrkoaWkoIlfnQdV3tSFMeyJwJwO0Mj0ZZnZ/Vu8rZ+motG5+vpmFllEipH8Mw1CYc5b7NyQCM002NaKWPFdvLeeJ7jTz+egPNj5bgNXw4WQ3pSLX3QPlKczoAQoDp0QhFPVQ1B3lkUwkbn6tl08s1LN1aSrjCj4bhDptKtSdN+aI5HYDbjTeLVj1expZv17DhGzUsXldGWV2IQMiDrrvDpqpppNxu3gRgnNAE4VIvK7aWsfvPm3ji+w0s3VJOMBxA5kBaUg2bKjfNuwBAcTbZbxCt9LJobYQNz9Ww5dValu4qIVLjUTvRlJvmZQDALePjneTmlghrd1ew/tkqKpuDGN75+2srD2ZBlATd1IhW+1n3TBVNqyMEo56J36IsUAsiAIwvtNMEmu4e3TKRlZc4hYlfVWYbefM2G/fPw3bnFkwAvoomIFrpJRA10RhfZDfxu5QZJwVCCjShESwz8Yd1NP2LD7MHoQIA6B6Npg1hapcF8fo9aJo+8VuUWUAIgWEYBEJeapb5KWv0YXi0hzrkVwUAdzJt6eYytn+7kSd/0MTSx8oIlwXcLZk3N+GoKmH6Fa99cgTC1impDrBqVwXP/E0zj71YS+0jIbc5+/XLvwoAt80d1C4NsWxLKeufraHlySqa1pXgC3oQuJtwlGkkQVruEz9aFWDpljLW7ami5ekqFj9aQkVDAH/YeKjCjwrAnTx+nfL6AGt2VrDpm9Ws21NF3dIokYoAHp/hjq2qebSpJd22vqZp+IMeSuuCLNlQyqMv1bLpm7Us21xGpMyLbk5O0Z2cv2Ueilb5WLWjgpf/7hF2fa+BJZvL8GgesHXk1N1TvaBJKXFsgbQ0AiEfa/ZU8/QPF/HEnzWweG2UYMSc9MvpVQCKbMtxrxotMkz3brSSGh9LNpaw8dkaHn+9gaXbSimtDSCc8UV2d/w1ygOSSHfUzRaYuknV4jBr91Sx/bUG1u6upGF1mGiVD2/AeOgRn7tRASheHzR0I81Ib4bsmIV07lwxV1rjZ+mmUjZ/q4Z1e6pYsqmMquYwgagHwyge2aKC8MBksYNrenTC5T5ql0VZsa2cDd+oYeMLVTStiRAq8SDuMm8zWVQAgHzG5rM/9nF63wCDnWMU8l+8dFo3NQIRk1XbK9n1eiNP/kUjzRtKCER9t2oCFYL7JqX71BeWTrQ6wKpdlTz1oya2/2k9zS0RfEHzoYY375cKAO4Vr6NDedoPj9D6RjfH3u6h81yCzKh1RxNHCIHh0QiVeWhYGWbry/Vs/9N6Vj9RSajEj64ZYGtqE85XkI7EsSSmblC5KMyjL9Wy87UG1u+ponpxEH/IQDe0SW/rfxkVgOKD28o6jNzIcOWzYc5+NEjb/hiXjowwcD1FZrRwx527hkcjXOahqSXKqh3ltOyuZtXOChpWR4lU+MBSm/QnkhKkLTBNg5IaP4vWlrB6RyVr91SxfFs5tUtDBCLmlLTzv4oKQJHQAN2hYBXobR/l6Js9fPjj65z4oI/BzjSFnOOG4I4aAUqq/ax6vJzn/2Yx279TT/P6EjTL496S6ah2kSyO7uCA5uiEIgGWb6/gie83sePf1dO8Nkogak5pO/+r6H//93//Xyd+caEp5BwufjJEYjCLbTsITYImsW2bRF+WvqtphrqzoIEnoGN69DuqaCEEQhP4wwYVDQEa10TwRXVsGzLDjlsTCEBI9/j3KaShESr1suLxMgIRE113n3FWwSHWmeHqqThWwUJKOeVtbCklWBoew0P1sggtuyvZWLxgvbTWh8enz1jBH6cCMDEAlnPzqlHHdsimLMZG8ozFC2RGLXJpB8dyMLwahqnd/ACFcC8BCZR4iNZ48Uc9+IMmplcHIXAsiZVz3NPhp/Aznw0BkA4IKfAFTcrqgzStcUd3HtlUQv2KMNFKH6Z35gs/qgn01YQm0EyBbdsMdY/R9uEgR37bzel9A/S0pxgdzlHI2nf0D3RDEIiYLN1YyuaXatj2nXoe2VxOaW0Qr8dEE/P43KJiVacbGr6ASXlTiFU7y9n2Wi2PvlBN/coIvtDDL1+YTCoA90MAmsQRBRKxNBdbh9j3004++U0XV8/ESY9ad4Rg/DX+oEnd0hDbXqll53cbWftcNSUVIQzdLB7wO3+SIB2Qlo7H9FCztIRHX67lqR8sYuOz1VQtCk3a0oXJNjt/qllKCrAKNmOJLIMdo1w+Nsyp9/o58cd+rp9NMDqSu+PprhkCX9CdTW5qCbN2dxWbX6plxePlVDSE0GwTOYfPN5VSusOaefB6TaqXhVn7dBWbnq9h9Y4K6peFiFT68Pjv7DPNJioAD0AUR37QJJZTINY5RnvrEMf/0EvbgQE6TicZ6kqTSVnY1q0CrWmCSJmXRS0RNr5Qxbpnq1m6uYzKxgihUh+mR3fXwMyVDEi3tSOEhunVCZf7qV0aYfXj5Wx6sZqWpyqoXx7BH56a5QuTSQXgaxJCoBngaDajI2nO7h3gg/9znQ9/0smNiwkyqS/urxSaWyMsXhfl8dfreem/NLP+mRpKa8M4GQ1pFZ+qs7w2cKQDBQ2v4aXqEfd3ee7fN7PlW/VUNgfdjj8UHxmzmxoF+pJRoPtS/D4pJbblYOVsMqMF4n1ZkrE8+ayN6XdHi8afhEK4nUTTq+MPGYTLPJRW+QiWGaAL7DwUMm4AxG3/j/s1ZaNAsji6gyAQ9tOwOsLKxytYtbOcptURSuv8+ILuE/9B/tqZpgLwMAEYVxw2lUKSz9gMd2cZHS6QTRWQllt4hCHcYVPhFhChucsqwuUeotVeolXem9v7pCWQtoPjuCslH+TnmZIASIEQGt6gQUmVn8ZVJazYWs7ybaU0ro4QKvVgmHNzG6lqAk02TSIMh3jvGBcOxtj3jx0c+X0PHWcT5DNuwZsoEDFpXB1h67fq2fF6Iy17KolWhtCF4Z5k98WXTBN3BhdHwzQ8VC+OsP75Kp76YSNrn6mkclHwZqjnKhWAqSIkjrTJpXNcPzXCkTd72PsPHVz4JEZiIDPxu29OpFU2BVi7u5LdP2xi44u1VC2OoksPsiBwpmtpRXF0x84IfH4vjWujbHutju3frmf1jkrCFV5Mz/QtWJtKqgk0GU2gu7nZP3DIjdmMDedJDObIjFnkUg5WXqLp7sSZbrjPIaEJTK9OIOpxj2mJGHgDhrtkQNdwbLCyxf7Bl/yMD9sEko5A1zS8AZOq5gjN60pY9lgZSzeVUPNIiEi5t7ha84uvnYtUDTDlBMIAR9ik4mk+3zfIoV910fpGF9fPJEgO5ijk71xoJwR4AzqL1kbZ/lo9u/+ykZbdVVQ0hPHoXneT/l2aUg9PoAsdX9BHRVOYra/U8eQPm9j8Ui3VS0L4gsbEF8x5KgDTSGgC3SvJ53L0XEnQ+kYXH//yBmf3DZAcylHIf3GzsWEISmv8rHu6gt1/0cSOP6+nYU0JPr8XpyDc/ckPkQUpJY4FwtEJhPws3VrGju/W8+LfLuGRzaWESub3MZIqANNJgNDBcRyyqTyxzhTXTo3Q9tEAx//Qx5UTcYZ70lgF5+YTXmhu36CkxkfjqhArd5SzYU8Vq3dWUrciSiDiRYjiaXYPQBaHNTVhEK0I0LSuhHVPV7F2dxXLt5RRuyxEuMyD4ZnfRWR+/3azlSh2kjWbZCzD9ZNxjrzVw6m9fVw5Hme4O006aWEVbpVqIdwLxKubg7Q85S6pWPNkJbXLIoTL/O4wpCwuQf6SGuHml6VAEwKP1yBaHmBRsfBvfbWGFdvLqGgMzJs2/r2oAMwgdx8BSGGTz+e4emyET/+lm73/0MnFT4eI92cnvgQAj1ejclGQDc9W8cSfNbLxhWoqm8PoeHDybg1zVxJ3p1pew+f3Ubs8ys7vNfD4d+pZtaOccLkXwzM3x/O/LjUKNFWjQPdL3BoxsvMO+ZxFerRAcqBAYiBHOmFhet1JtPEVle5ssts08gUNQqUeyqr9hMs96KaOx2uwbEsJ/rB5c4SpkLMZ7s7Q056isSXM8m1lrHy8nKY17rEjvqCBps2tWdzJoAIw0wG4jdDcdUCFrM1Id46RvhzJkVzx53FrC91wd5+NN1EMj0ao1ENFk5+SOi8ej4nX66GhJYgvYKAVh0FtS5JJ2VhZm5U7y1mxtYzG1VH8oVshWYhEOp3+khbjwjGWKPC7/36Rjs/j5LKFGQvAHYqbSzRNx+P1UL8yxJJNUVZsKyNc7m4nnMixJfmsjW1JPH4N3dBu3oVg2+6OtELexuvX0c1b/20hW7jRn+2KKXQcm1wmR8/lJGf3D3LwF9207Ruk70oKa3z+oEjTBd6Au8jOmFDANU1g+jQCYRPDo6vCX6QCMJsV+wcONulEjv4ro1w8HKPt40HOHxri2ukEI70Zcmnr1kuEewvOxFEccdsNObOihpslVADmACEEQgcpHDKZLFeODXPkNz3s/6dO2o8NE+/P4Nhy7myomUVUAOYYIQSa6VCwcwx1JTn2Vi/7ftpJ67920XdllOzYrdpAuTcVgLlIc8f6c+kCsa4xOs7GOXdokFPvDdD+6TD914r9A1Uj3JMKwFxVPIxL80hy2Ty97Uk++10fR37XS/uRYbLpu+89UO6kAjAfCHcOwdbyxDpSXDueIJPI41hfMiOs3KQCMF8IQEgKOZvMqI1tz/at9bODCsA8IzR3xemDbqZfqFQAlAVNBUBZ0FQAlAVNBUBZ0FQAlAVNBUBZ0FQAlAVNBUBZ0FQAlAVNBUBZ0FQAlAVNBUBZ0FQAlAVNBUBZ0FQAlAVNBUBZ0FQAlAVNBUBZ0FQAlAVNBUBZ0FQAlAVNBUBZ0FQAlAVNBUBZ0FQAiqR8uPt2lblJBaB4iJrh0dB0AQ958bQyt6gA4F5GHSj14PV5kFbx0mkVggVBBQDw+DQefb6K7a/XsfbZSsrqQhiGgV2Q6ojxeU4FANBNjdqlYZZvLWPN7ipW76yksSVKtCqAkKpGmM9UAIo0XVBa42fFlnIef62eTd+sY8nGUnwBH4ZhuJfOqdpg3lEBmEDTBL6gQfPaKNteqeMbf7uYVTsriZaHkBkDaanaYD5RAZhIgGYIglGTqkVBlmwuYe3T1ax/rpoVu8opqwtimgZOAbdppMxpKgBfQTc1wqVelm8pZfOfVLPltVqWbCqjrD6Ez+9BNzQ3MapGmLNUAO5TIGTSsDzKzu808MT3G2l5tpLSqhCmbiJtoUaL5igVgPuk6QKvXydS6aVxdZi1u6vZ/FINK3aWUbEoiK7pSFs1i+YaFYAHpOmCcJmXptURWp6uYO3TVSzfWkbN0gjBUi+6oSFt1SyaK1QAviZNFwQjHh7ZUMrjrzXyzF8vZsW2CoIRPzJr4FiaGjWdA1QAHoLQBLqpEQibVDcHefQbNez+8yY2v1pNzdIwHo8HOweOrWaUZysVgEmg6YJAxKRhZYRVu8pZ90wlq3dU0LyuhPKGAF6/iaA4o6zMKioAk0hKiS9ksKilhG3frmfXnzWw9pkqSmuCmIYJjuobzDYqAJNICOEumQBMj0ZFY5D1T1Wz+wdNbHyxhupHInhML9ga0lEbEGYDFYApoukCf8igrD5A87ooa3ZVsH5PNcu3u8OmpsdAWkI1i2aYCsAUEwL8YZOmliiPvVzDlldrWba1jNK6oDubrGsIVGUwU1QAppFhalQtCrH1T+p44T8uZetr9dQsiaAL89ZGHGVaqQBMI6G5s8nRSh/1y0KseryCTd+oZd0zVdSujOAPe0EKpNqWOW1UAGaIx69T80iIlj2VbH65ltW7yqlfHiFaEcD06cX9B26HWpk6KgAzzPTqVC4KsvnFOp78fiObvllDzSMRvB4v2KI4m6yqg6miAjDDhHD7Bv6QQWVTkBXbytn+agMbX6imfnXUnT+wVf9gqqgAzCK+kEHVoiDLt5Wxdk8la3ZWsnh9KeWNIfxBj9skUpNpk0oFYLYp1gg1j4TZ8kod3/zPS9n8Ui2Vi8Lojnlz7kCtLZocKgCzlBCgF7dmrthaxq7vNvLkj5pYuq2MUIkfYRf3H6gcPBQVgFnO8GiU1vppXh9h9RPlrH2qmhXby6lbGcUf9aLratn1w1ABmCNMr055fYD1e6rY8Xo9m16ooXZJhEDIh6Hp7myy8sBUAOagcLmPpVtK2fOjJrb9aT3NG8rweL0IR40WPSgVgDnI9GqEy7zF0+xKWbenmg3P1dC0roRA1IudVVMH90uk02n1Vs1xdkGSTuZpPzrEpdY4+ZTk+b9bRFmdH9OjT/x25TYqAPOAlCBtSTZtkejLkh2zqVoSwBc0imcXKV9GBWCeKWRtrLyD6dfRdYHQVPf4q6gAzEuyeO2Hci+qfpyXVOG/XyoAyoL2/wHYnAVKkI7bEgAAAABJRU5ErkJggg==;" vertex="1" parent="1">
          <mxGeometry x="610" y="290" width="38.21" height="40" as="geometry" />
        </mxCell>
        <mxCell id="0rCnzquColoowFlRNXeS-5" value="" style="whiteSpace=wrap;html=1;shape=mxgraph.basic.document;fillColor=#f8cecc;strokeColor=#b85450;" vertex="1" parent="1">
          <mxGeometry x="430" y="-50" width="100" height="100" as="geometry" />
        </mxCell>
        <mxCell id="0rCnzquColoowFlRNXeS-6" style="edgeStyle=orthogonalEdgeStyle;rounded=0;orthogonalLoop=1;jettySize=auto;html=1;entryX=0;entryY=0.5;entryDx=0;entryDy=0;entryPerimeter=0;" edge="1" parent="1" source="0rCnzquColoowFlRNXeS-2" target="0rCnzquColoowFlRNXeS-5">
          <mxGeometry relative="1" as="geometry">
            <Array as="points">
              <mxPoint x="69" />
            </Array>
          </mxGeometry>
        </mxCell>
        <mxCell id="0rCnzquColoowFlRNXeS-7" style="edgeStyle=orthogonalEdgeStyle;rounded=0;orthogonalLoop=1;jettySize=auto;html=1;entryX=1;entryY=0.5;entryDx=0;entryDy=0;entryPerimeter=0;" edge="1" parent="1" source="0rCnzquColoowFlRNXeS-4" target="0rCnzquColoowFlRNXeS-5">
          <mxGeometry relative="1" as="geometry">
            <Array as="points">
              <mxPoint x="629" />
            </Array>
          </mxGeometry>
        </mxCell>
        <mxCell id="0rCnzquColoowFlRNXeS-8" value="&lt;b&gt;remote state&lt;/b&gt;" style="text;html=1;align=center;verticalAlign=middle;resizable=0;points=[];autosize=1;strokeColor=none;fillColor=none;" vertex="1" parent="1">
          <mxGeometry x="435" y="70" width="90" height="30" as="geometry" />
        </mxCell>
      </root>
    </mxGraphModel>
  </diagram>
</mxfile>
